<?xml version="1.0" standalone="no"?>
<!DOCTYPE svg PUBLIC "-//W3C//DTD SVG 20010904//EN"
 "http://www.w3.org/TR/2001/REC-SVG-20010904/DTD/svg10.dtd">
<svg version="1.0" xmlns="http://www.w3.org/2000/svg"
 width="245.000000pt" height="245.000000pt" viewBox="0 0 245.000000 245.000000"
 preserveAspectRatio="xMidYMid meet">
<metadata>
Created by potrace 1.11, written by Peter Selinger 2001-2013
</metadata>
<g transform="translate(0.000000,245.000000) scale(0.100000,-0.100000)"
fill="#000000" stroke="none">
<path d="M1265 2046 c-77 -23 -145 -44 -151 -48 -6 -4 -17 -36 -24 -70 -8 -35
-14 -65 -15 -68 -1 -3 -5 -21 -9 -40 -4 -19 -12 -52 -17 -72 l-10 -37 -131 -3
-132 -3 -8 -30 c-4 -16 -10 -39 -12 -50 -2 -11 -9 -40 -15 -65 -19 -81 -26
-77 119 -76 112 1 129 -1 125 -14 -2 -8 -6 -26 -9 -40 -2 -14 -12 -56 -21 -95
-9 -38 -19 -81 -21 -95 -3 -14 -12 -52 -21 -85 -8 -33 -17 -69 -19 -80 -2 -10
-20 -91 -40 -180 -29 -130 -35 -174 -32 -236 12 -211 170 -320 443 -306 78 4
116 11 170 32 39 16 72 32 75 36 5 7 -9 199 -14 206 -1 1 -30 -9 -65 -23 -129
-52 -263 -24 -307 63 -26 51 -25 64 23 268 19 83 37 158 39 168 2 10 6 27 9
37 3 10 8 29 10 42 10 53 68 293 71 297 3 3 93 5 201 5 l196 1 8 25 c5 14 17
64 28 113 l19 87 -199 0 c-109 0 -199 3 -199 8 0 4 5 23 10 42 6 19 13 49 16
65 2 17 17 81 33 143 15 62 25 114 22 116 -3 1 -69 -16 -146 -38z"/>
</g>
</svg>
