<svg version="1" xmlns="http://www.w3.org/2000/svg" width="682.667" height="682.667" viewBox="0 0 512.000000 512.000000"><path d="M435 17.4c-2 1.9-26.7 27.4-52 53.6-2.5 2.6-14.8 15.4-27.5 28.5-12.6 13.1-25.9 26.8-29.5 30.5-5.8 6-30.5 31.7-53.5 55.5-4.4 4.5-17.5 18.1-29.1 30.1-11.7 12.1-24.6 25.5-28.9 29.9-9.9 10.3-49.2 51-57 59-3.3 3.4-15.4 16-27 28-11.5 11.9-24.8 25.7-29.5 30.5-7.4 7.7-19.1 19.8-58.3 60.4-4.8 5-10.8 11.2-13.3 13.8l-4.7 4.7h206.2c157.5 0 206.1-.3 206.2-1.2.1-.9.5-425.7.4-425.7 0 0-1.1 1.1-2.5 2.4z"/><path d="M474.5 62.5c-3.3 3.4-9.9 10.3-14.6 15.2l-8.6 8.9v183.1c0 100.7-.3 183.5-.6 184-.4.6-71.2.9-177.4.8l-176.8-.1-13.9 14.1-13.9 14 205.8.3c113.2.1 206 0 206.3-.2.5-.5.6-425.6.1-426-.2-.2-3.1 2.5-6.4 5.9z"/></svg>